<mxfile host="app.diagrams.net" agent="Mozilla/5.0 (Windows NT 10.0; Win64; x64) AppleWebKit/537.36 (KHTML, like Gecko) Chrome/130.0.0.0 Safari/537.36" version="24.8.6" pages="2">
  <diagram name="Page-1" id="wGb8WQe8dFVdb0Nz1Q5S">
    <mxGraphModel dx="1687" dy="889" grid="1" gridSize="10" guides="1" tooltips="1" connect="1" arrows="1" fold="1" page="1" pageScale="1" pageWidth="1169" pageHeight="827" math="0" shadow="0">
      <root>
        <mxCell id="0" />
        <mxCell id="1" parent="0" />
        <mxCell id="0nGfKhoNtDC8-pFZN1kh-23" value="&lt;h2&gt;&lt;br&gt;&lt;/h2&gt;" style="html=1;whiteSpace=wrap;align=center;" parent="1" vertex="1">
          <mxGeometry x="190" y="30" width="590" height="540" as="geometry" />
        </mxCell>
        <mxCell id="0nGfKhoNtDC8-pFZN1kh-4" value="comptable" style="shape=umlActor;verticalLabelPosition=bottom;verticalAlign=top;html=1;outlineConnect=0;" parent="1" vertex="1">
          <mxGeometry x="1670" y="405" width="30" height="60" as="geometry" />
        </mxCell>
        <mxCell id="0nGfKhoNtDC8-pFZN1kh-9" value="chef d&#39;atelier" style="shape=umlActor;verticalLabelPosition=bottom;verticalAlign=top;html=1;outlineConnect=0;" parent="1" vertex="1">
          <mxGeometry x="20" y="310" width="30" height="60" as="geometry" />
        </mxCell>
        <mxCell id="0nGfKhoNtDC8-pFZN1kh-13" value="magasignier" style="shape=umlActor;verticalLabelPosition=bottom;verticalAlign=top;html=1;outlineConnect=0;" parent="1" vertex="1">
          <mxGeometry x="1670" y="150" width="30" height="60" as="geometry" />
        </mxCell>
        <mxCell id="0nGfKhoNtDC8-pFZN1kh-14" value="enregistrer un véhicule" style="ellipse;whiteSpace=wrap;html=1;" parent="1" vertex="1">
          <mxGeometry x="410" y="226" width="100" height="50" as="geometry" />
        </mxCell>
        <mxCell id="0nGfKhoNtDC8-pFZN1kh-17" value="enregistrer réparations&amp;nbsp;&lt;div&gt;a faire&lt;/div&gt;" style="ellipse;whiteSpace=wrap;html=1;" parent="1" vertex="1">
          <mxGeometry x="210" y="170" width="140" height="70" as="geometry" />
        </mxCell>
        <mxCell id="0nGfKhoNtDC8-pFZN1kh-18" value="définir quel mécanicien travail sur quel véhicule" style="ellipse;whiteSpace=wrap;html=1;" parent="1" vertex="1">
          <mxGeometry x="210" y="260" width="140" height="70" as="geometry" />
        </mxCell>
        <mxCell id="0nGfKhoNtDC8-pFZN1kh-19" value="vérifier réparations" style="ellipse;whiteSpace=wrap;html=1;" parent="1" vertex="1">
          <mxGeometry x="410" y="320" width="140" height="70" as="geometry" />
        </mxCell>
        <mxCell id="0nGfKhoNtDC8-pFZN1kh-20" value="clôturé dossier&lt;div&gt;&amp;nbsp;réparation&lt;/div&gt;" style="ellipse;whiteSpace=wrap;html=1;" parent="1" vertex="1">
          <mxGeometry x="240" y="405" width="140" height="70" as="geometry" />
        </mxCell>
        <mxCell id="0nGfKhoNtDC8-pFZN1kh-21" value="crée un dossier de réparation" style="ellipse;whiteSpace=wrap;html=1;" parent="1" vertex="1">
          <mxGeometry x="210" y="60" width="140" height="70" as="geometry" />
        </mxCell>
        <mxCell id="0nGfKhoNtDC8-pFZN1kh-25" value="mécanicien" style="shape=umlActor;verticalLabelPosition=bottom;verticalAlign=top;html=1;" parent="1" vertex="1">
          <mxGeometry x="1179" y="539" width="30" height="60" as="geometry" />
        </mxCell>
        <mxCell id="0nGfKhoNtDC8-pFZN1kh-26" value="" style="html=1;whiteSpace=wrap;" parent="1" vertex="1">
          <mxGeometry x="840" y="414" width="290" height="370" as="geometry" />
        </mxCell>
        <mxCell id="0nGfKhoNtDC8-pFZN1kh-28" value="faire les réparations&lt;div&gt;enregistrés&lt;/div&gt;" style="ellipse;whiteSpace=wrap;html=1;" parent="1" vertex="1">
          <mxGeometry x="880" y="584" width="140" height="70" as="geometry" />
        </mxCell>
        <mxCell id="0nGfKhoNtDC8-pFZN1kh-29" value="changer des pièces" style="ellipse;whiteSpace=wrap;html=1;" parent="1" vertex="1">
          <mxGeometry x="880" y="704" width="140" height="70" as="geometry" />
        </mxCell>
        <mxCell id="0nGfKhoNtDC8-pFZN1kh-31" value="" style="html=1;whiteSpace=wrap;" parent="1" vertex="1">
          <mxGeometry x="1260" y="30" width="350" height="490" as="geometry" />
        </mxCell>
        <mxCell id="0nGfKhoNtDC8-pFZN1kh-33" value="donner les pieces" style="ellipse;whiteSpace=wrap;html=1;" parent="1" vertex="1">
          <mxGeometry x="1360" y="40" width="140" height="70" as="geometry" />
        </mxCell>
        <mxCell id="0nGfKhoNtDC8-pFZN1kh-34" value="commander les pieces" style="ellipse;whiteSpace=wrap;html=1;" parent="1" vertex="1">
          <mxGeometry x="1270" y="175" width="140" height="70" as="geometry" />
        </mxCell>
        <mxCell id="0nGfKhoNtDC8-pFZN1kh-35" value="réceptionner les pièces" style="ellipse;whiteSpace=wrap;html=1;" parent="1" vertex="1">
          <mxGeometry x="1340" y="289" width="140" height="70" as="geometry" />
        </mxCell>
        <mxCell id="0nGfKhoNtDC8-pFZN1kh-37" value="envoyer liste des réparations" style="ellipse;whiteSpace=wrap;html=1;" parent="1" vertex="1">
          <mxGeometry x="345" y="495" width="140" height="70" as="geometry" />
        </mxCell>
        <mxCell id="0nGfKhoNtDC8-pFZN1kh-38" value="" style="html=1;whiteSpace=wrap;" parent="1" vertex="1">
          <mxGeometry x="1800" y="282" width="250" height="450" as="geometry" />
        </mxCell>
        <mxCell id="0nGfKhoNtDC8-pFZN1kh-39" value="réceptionne les listes réparations et des pièces" style="ellipse;whiteSpace=wrap;html=1;" parent="1" vertex="1">
          <mxGeometry x="1830" y="322" width="140" height="70" as="geometry" />
        </mxCell>
        <mxCell id="0nGfKhoNtDC8-pFZN1kh-40" value="émet factures" style="ellipse;whiteSpace=wrap;html=1;" parent="1" vertex="1">
          <mxGeometry x="1830" y="502" width="140" height="70" as="geometry" />
        </mxCell>
        <mxCell id="0nGfKhoNtDC8-pFZN1kh-41" value="imprime les factures" style="ellipse;whiteSpace=wrap;html=1;" parent="1" vertex="1">
          <mxGeometry x="1830" y="652" width="140" height="70" as="geometry" />
        </mxCell>
        <mxCell id="0nGfKhoNtDC8-pFZN1kh-42" value="gestion des réparations" style="text;align=left;fontStyle=1;verticalAlign=middle;spacingLeft=3;spacingRight=3;strokeColor=none;rotatable=0;points=[[0,0.5],[1,0.5]];portConstraint=eastwest;fontSize=19;" parent="1" vertex="1">
          <mxGeometry x="190" y="20" width="456" height="40" as="geometry" />
        </mxCell>
        <mxCell id="0nGfKhoNtDC8-pFZN1kh-43" value="&lt;font style=&quot;font-size: 19px;&quot;&gt;comptabilité&lt;/font&gt;" style="text;align=left;fontStyle=1;verticalAlign=middle;spacingLeft=3;spacingRight=3;strokeColor=none;rotatable=0;points=[[0,0.5],[1,0.5]];portConstraint=eastwest;html=1;" parent="1" vertex="1">
          <mxGeometry x="1800" y="282" width="80" height="26" as="geometry" />
        </mxCell>
        <mxCell id="0nGfKhoNtDC8-pFZN1kh-44" value="&lt;font style=&quot;font-size: 19px;&quot;&gt;gestion du stocke et des pièces&lt;/font&gt;" style="text;align=left;fontStyle=1;verticalAlign=middle;spacingLeft=3;spacingRight=3;strokeColor=none;rotatable=0;points=[[0,0.5],[1,0.5]];portConstraint=eastwest;html=1;" parent="1" vertex="1">
          <mxGeometry x="1260" y="494" width="80" height="26" as="geometry" />
        </mxCell>
        <mxCell id="0nGfKhoNtDC8-pFZN1kh-45" value="&lt;font style=&quot;font-size: 19px;&quot;&gt;réparations&lt;/font&gt;" style="text;align=left;fontStyle=1;verticalAlign=middle;spacingLeft=3;spacingRight=3;strokeColor=none;rotatable=0;points=[[0,0.5],[1,0.5]];portConstraint=eastwest;html=1;" parent="1" vertex="1">
          <mxGeometry x="840" y="414" width="80" height="26" as="geometry" />
        </mxCell>
        <mxCell id="0nGfKhoNtDC8-pFZN1kh-76" value="extend" style="endArrow=open;endSize=12;dashed=1;html=1;rounded=0;entryX=0.5;entryY=1;entryDx=0;entryDy=0;exitX=0.5;exitY=0;exitDx=0;exitDy=0;" parent="1" source="0nGfKhoNtDC8-pFZN1kh-29" target="0nGfKhoNtDC8-pFZN1kh-28" edge="1">
          <mxGeometry width="160" relative="1" as="geometry">
            <mxPoint x="1220" y="694" as="sourcePoint" />
            <mxPoint x="1270" y="688" as="targetPoint" />
          </mxGeometry>
        </mxCell>
        <mxCell id="0nGfKhoNtDC8-pFZN1kh-78" value="include" style="endArrow=open;endSize=12;dashed=1;html=1;rounded=0;exitX=1;exitY=0.5;exitDx=0;exitDy=0;" parent="1" source="0nGfKhoNtDC8-pFZN1kh-21" target="0nGfKhoNtDC8-pFZN1kh-14" edge="1">
          <mxGeometry width="160" relative="1" as="geometry">
            <mxPoint x="70" y="340" as="sourcePoint" />
            <mxPoint x="230" y="340" as="targetPoint" />
          </mxGeometry>
        </mxCell>
        <mxCell id="0nGfKhoNtDC8-pFZN1kh-79" value="include" style="endArrow=open;endSize=12;dashed=1;html=1;rounded=0;exitX=0.5;exitY=1;exitDx=0;exitDy=0;" parent="1" source="0nGfKhoNtDC8-pFZN1kh-21" target="0nGfKhoNtDC8-pFZN1kh-17" edge="1">
          <mxGeometry width="160" relative="1" as="geometry">
            <mxPoint x="70" y="340" as="sourcePoint" />
            <mxPoint x="230" y="340" as="targetPoint" />
          </mxGeometry>
        </mxCell>
        <mxCell id="0nGfKhoNtDC8-pFZN1kh-86" value="include" style="endArrow=open;endSize=12;dashed=1;html=1;rounded=0;exitX=0.207;exitY=0.114;exitDx=0;exitDy=0;entryX=0.5;entryY=1;entryDx=0;entryDy=0;exitPerimeter=0;" parent="1" source="0nGfKhoNtDC8-pFZN1kh-37" target="0nGfKhoNtDC8-pFZN1kh-20" edge="1">
          <mxGeometry x="0.0124" width="160" relative="1" as="geometry">
            <mxPoint x="-80" y="355" as="sourcePoint" />
            <mxPoint x="256" y="560" as="targetPoint" />
            <mxPoint as="offset" />
          </mxGeometry>
        </mxCell>
        <mxCell id="0nGfKhoNtDC8-pFZN1kh-88" value="extend" style="endArrow=open;endSize=12;dashed=1;html=1;rounded=0;exitX=0.771;exitY=0.114;exitDx=0;exitDy=0;exitPerimeter=0;" parent="1" source="0nGfKhoNtDC8-pFZN1kh-34" target="0nGfKhoNtDC8-pFZN1kh-33" edge="1">
          <mxGeometry width="160" relative="1" as="geometry">
            <mxPoint x="1860" y="220" as="sourcePoint" />
            <mxPoint x="2020" y="220" as="targetPoint" />
          </mxGeometry>
        </mxCell>
        <mxCell id="0nGfKhoNtDC8-pFZN1kh-89" value="include" style="endArrow=open;endSize=12;dashed=1;html=1;rounded=0;exitX=0;exitY=0.5;exitDx=0;exitDy=0;entryX=0.5;entryY=1;entryDx=0;entryDy=0;" parent="1" source="0nGfKhoNtDC8-pFZN1kh-35" target="0nGfKhoNtDC8-pFZN1kh-34" edge="1">
          <mxGeometry width="160" relative="1" as="geometry">
            <mxPoint x="1860" y="220" as="sourcePoint" />
            <mxPoint x="2020" y="220" as="targetPoint" />
          </mxGeometry>
        </mxCell>
        <mxCell id="0nGfKhoNtDC8-pFZN1kh-94" value="include" style="endArrow=open;endSize=12;dashed=1;html=1;rounded=0;exitX=0.5;exitY=1;exitDx=0;exitDy=0;entryX=0.5;entryY=0;entryDx=0;entryDy=0;" parent="1" source="0nGfKhoNtDC8-pFZN1kh-40" target="0nGfKhoNtDC8-pFZN1kh-41" edge="1">
          <mxGeometry width="160" relative="1" as="geometry">
            <mxPoint x="1680" y="282" as="sourcePoint" />
            <mxPoint x="1840" y="282" as="targetPoint" />
          </mxGeometry>
        </mxCell>
        <mxCell id="0nGfKhoNtDC8-pFZN1kh-112" value="" style="endArrow=open;endFill=1;endSize=12;html=1;rounded=0;exitX=0.447;exitY=0.669;exitDx=0;exitDy=0;exitPerimeter=0;entryX=1;entryY=0.5;entryDx=0;entryDy=0;" parent="1" source="0nGfKhoNtDC8-pFZN1kh-25" target="0nGfKhoNtDC8-pFZN1kh-28" edge="1">
          <mxGeometry width="160" relative="1" as="geometry">
            <mxPoint x="1500" y="774" as="sourcePoint" />
            <mxPoint x="1660" y="774" as="targetPoint" />
          </mxGeometry>
        </mxCell>
        <mxCell id="0nGfKhoNtDC8-pFZN1kh-113" value="" style="endArrow=open;endFill=1;endSize=12;html=1;rounded=0;exitX=0.486;exitY=0.669;exitDx=0;exitDy=0;exitPerimeter=0;" parent="1" source="0nGfKhoNtDC8-pFZN1kh-25" target="0nGfKhoNtDC8-pFZN1kh-29" edge="1">
          <mxGeometry width="160" relative="1" as="geometry">
            <mxPoint x="1202" y="589" as="sourcePoint" />
            <mxPoint x="1030" y="529" as="targetPoint" />
          </mxGeometry>
        </mxCell>
        <mxCell id="0nGfKhoNtDC8-pFZN1kh-114" value="" style="endArrow=open;endFill=1;endSize=12;html=1;rounded=0;exitX=0.5;exitY=0.5;exitDx=0;exitDy=0;exitPerimeter=0;entryX=1;entryY=0.5;entryDx=0;entryDy=0;" parent="1" source="0nGfKhoNtDC8-pFZN1kh-13" target="0nGfKhoNtDC8-pFZN1kh-33" edge="1">
          <mxGeometry width="160" relative="1" as="geometry">
            <mxPoint x="1920" y="100" as="sourcePoint" />
            <mxPoint x="2080" y="100" as="targetPoint" />
          </mxGeometry>
        </mxCell>
        <mxCell id="0nGfKhoNtDC8-pFZN1kh-115" value="" style="endArrow=open;endFill=1;endSize=12;html=1;rounded=0;exitX=0.5;exitY=0.5;exitDx=0;exitDy=0;exitPerimeter=0;" parent="1" source="0nGfKhoNtDC8-pFZN1kh-13" target="0nGfKhoNtDC8-pFZN1kh-34" edge="1">
          <mxGeometry width="160" relative="1" as="geometry">
            <mxPoint x="1654" y="190" as="sourcePoint" />
            <mxPoint x="1510" y="85" as="targetPoint" />
          </mxGeometry>
        </mxCell>
        <mxCell id="0nGfKhoNtDC8-pFZN1kh-116" value="" style="endArrow=open;endFill=1;endSize=12;html=1;rounded=0;exitX=0.5;exitY=0.5;exitDx=0;exitDy=0;exitPerimeter=0;entryX=1;entryY=0;entryDx=0;entryDy=0;" parent="1" source="0nGfKhoNtDC8-pFZN1kh-13" target="0nGfKhoNtDC8-pFZN1kh-35" edge="1">
          <mxGeometry width="160" relative="1" as="geometry">
            <mxPoint x="1654" y="190" as="sourcePoint" />
            <mxPoint x="1419" y="213" as="targetPoint" />
          </mxGeometry>
        </mxCell>
        <mxCell id="0nGfKhoNtDC8-pFZN1kh-117" value="" style="endArrow=open;endFill=1;endSize=12;html=1;rounded=0;exitX=0.5;exitY=0.5;exitDx=0;exitDy=0;exitPerimeter=0;entryX=0;entryY=0.5;entryDx=0;entryDy=0;" parent="1" source="0nGfKhoNtDC8-pFZN1kh-9" target="0nGfKhoNtDC8-pFZN1kh-21" edge="1">
          <mxGeometry width="160" relative="1" as="geometry">
            <mxPoint x="130" y="290" as="sourcePoint" />
            <mxPoint x="290" y="290" as="targetPoint" />
          </mxGeometry>
        </mxCell>
        <mxCell id="0nGfKhoNtDC8-pFZN1kh-118" value="" style="endArrow=open;endFill=1;endSize=12;html=1;rounded=0;entryX=0;entryY=0.5;entryDx=0;entryDy=0;exitX=0.5;exitY=0.5;exitDx=0;exitDy=0;exitPerimeter=0;" parent="1" source="0nGfKhoNtDC8-pFZN1kh-9" target="0nGfKhoNtDC8-pFZN1kh-17" edge="1">
          <mxGeometry width="160" relative="1" as="geometry">
            <mxPoint x="40" y="340" as="sourcePoint" />
            <mxPoint x="290" y="290" as="targetPoint" />
          </mxGeometry>
        </mxCell>
        <mxCell id="0nGfKhoNtDC8-pFZN1kh-119" value="" style="endArrow=open;endFill=1;endSize=12;html=1;rounded=0;exitX=0.5;exitY=0.5;exitDx=0;exitDy=0;exitPerimeter=0;entryX=0;entryY=0.5;entryDx=0;entryDy=0;" parent="1" source="0nGfKhoNtDC8-pFZN1kh-9" target="0nGfKhoNtDC8-pFZN1kh-19" edge="1">
          <mxGeometry width="160" relative="1" as="geometry">
            <mxPoint x="130" y="290" as="sourcePoint" />
            <mxPoint x="290" y="290" as="targetPoint" />
          </mxGeometry>
        </mxCell>
        <mxCell id="0nGfKhoNtDC8-pFZN1kh-120" value="" style="endArrow=open;endFill=1;endSize=12;html=1;rounded=0;entryX=0.072;entryY=0.762;entryDx=0;entryDy=0;entryPerimeter=0;exitX=0.5;exitY=0.5;exitDx=0;exitDy=0;exitPerimeter=0;" parent="1" source="0nGfKhoNtDC8-pFZN1kh-9" target="0nGfKhoNtDC8-pFZN1kh-18" edge="1">
          <mxGeometry width="160" relative="1" as="geometry">
            <mxPoint x="30" y="340" as="sourcePoint" />
            <mxPoint x="290" y="290" as="targetPoint" />
          </mxGeometry>
        </mxCell>
        <mxCell id="0nGfKhoNtDC8-pFZN1kh-121" value="" style="endArrow=open;endFill=1;endSize=12;html=1;rounded=0;exitX=1;exitY=1;exitDx=0;exitDy=0;exitPerimeter=0;entryX=0;entryY=0.5;entryDx=0;entryDy=0;" parent="1" source="0nGfKhoNtDC8-pFZN1kh-9" target="0nGfKhoNtDC8-pFZN1kh-20" edge="1">
          <mxGeometry width="160" relative="1" as="geometry">
            <mxPoint x="130" y="290" as="sourcePoint" />
            <mxPoint x="290" y="290" as="targetPoint" />
          </mxGeometry>
        </mxCell>
        <mxCell id="0nGfKhoNtDC8-pFZN1kh-123" value="" style="endArrow=open;endFill=1;endSize=12;html=1;rounded=0;exitX=0.5;exitY=0.5;exitDx=0;exitDy=0;exitPerimeter=0;entryX=0;entryY=0.5;entryDx=0;entryDy=0;" parent="1" source="0nGfKhoNtDC8-pFZN1kh-4" target="0nGfKhoNtDC8-pFZN1kh-39" edge="1">
          <mxGeometry width="160" relative="1" as="geometry">
            <mxPoint x="1740" y="282" as="sourcePoint" />
            <mxPoint x="1900" y="282" as="targetPoint" />
          </mxGeometry>
        </mxCell>
        <mxCell id="0nGfKhoNtDC8-pFZN1kh-124" value="" style="endArrow=open;endFill=1;endSize=12;html=1;rounded=0;exitX=0.5;exitY=0.5;exitDx=0;exitDy=0;exitPerimeter=0;entryX=0;entryY=0.5;entryDx=0;entryDy=0;" parent="1" source="0nGfKhoNtDC8-pFZN1kh-4" target="0nGfKhoNtDC8-pFZN1kh-40" edge="1">
          <mxGeometry width="160" relative="1" as="geometry">
            <mxPoint x="1740" y="282" as="sourcePoint" />
            <mxPoint x="1900" y="282" as="targetPoint" />
          </mxGeometry>
        </mxCell>
        <mxCell id="0nGfKhoNtDC8-pFZN1kh-125" value="" style="endArrow=open;endFill=1;endSize=12;html=1;rounded=0;exitX=0.5;exitY=0.5;exitDx=0;exitDy=0;exitPerimeter=0;entryX=0;entryY=0.5;entryDx=0;entryDy=0;" parent="1" source="0nGfKhoNtDC8-pFZN1kh-4" target="0nGfKhoNtDC8-pFZN1kh-41" edge="1">
          <mxGeometry width="160" relative="1" as="geometry">
            <mxPoint x="1740" y="282" as="sourcePoint" />
            <mxPoint x="1900" y="282" as="targetPoint" />
          </mxGeometry>
        </mxCell>
        <mxCell id="Vs_hEIHAzvYyTjZS9S4T-1" value="enregistrer un client" style="ellipse;whiteSpace=wrap;html=1;" vertex="1" parent="1">
          <mxGeometry x="590" y="216" width="140" height="70" as="geometry" />
        </mxCell>
        <mxCell id="Vs_hEIHAzvYyTjZS9S4T-2" value="Use" style="endArrow=open;endSize=12;dashed=1;html=1;rounded=0;exitX=1;exitY=0.5;exitDx=0;exitDy=0;" edge="1" parent="1" source="0nGfKhoNtDC8-pFZN1kh-14" target="Vs_hEIHAzvYyTjZS9S4T-1">
          <mxGeometry width="160" relative="1" as="geometry">
            <mxPoint x="140" y="290" as="sourcePoint" />
            <mxPoint x="300" y="290" as="targetPoint" />
          </mxGeometry>
        </mxCell>
        <mxCell id="Vs_hEIHAzvYyTjZS9S4T-3" value="extend" style="endArrow=open;endSize=12;dashed=1;html=1;rounded=0;exitX=1;exitY=0;exitDx=0;exitDy=0;entryX=0;entryY=1;entryDx=0;entryDy=0;" edge="1" parent="1" source="0nGfKhoNtDC8-pFZN1kh-20" target="0nGfKhoNtDC8-pFZN1kh-19">
          <mxGeometry width="160" relative="1" as="geometry">
            <mxPoint x="170" y="400" as="sourcePoint" />
            <mxPoint x="330" y="400" as="targetPoint" />
          </mxGeometry>
        </mxCell>
        <mxCell id="Vs_hEIHAzvYyTjZS9S4T-4" value="restitution véhicule" style="ellipse;whiteSpace=wrap;html=1;" vertex="1" parent="1">
          <mxGeometry x="590" y="370" width="140" height="70" as="geometry" />
        </mxCell>
        <mxCell id="Vs_hEIHAzvYyTjZS9S4T-5" value="achat nouveau véhicule" style="ellipse;whiteSpace=wrap;html=1;" vertex="1" parent="1">
          <mxGeometry x="590" y="475" width="140" height="70" as="geometry" />
        </mxCell>
        <mxCell id="Vs_hEIHAzvYyTjZS9S4T-6" value="extend" style="endArrow=open;endSize=12;dashed=1;html=1;rounded=0;exitX=0;exitY=0;exitDx=0;exitDy=0;entryX=1;entryY=1;entryDx=0;entryDy=0;" edge="1" parent="1" source="Vs_hEIHAzvYyTjZS9S4T-5" target="0nGfKhoNtDC8-pFZN1kh-20">
          <mxGeometry width="160" relative="1" as="geometry">
            <mxPoint x="550" y="400" as="sourcePoint" />
            <mxPoint x="710" y="400" as="targetPoint" />
          </mxGeometry>
        </mxCell>
        <mxCell id="Vs_hEIHAzvYyTjZS9S4T-7" value="extend" style="endArrow=open;endSize=12;dashed=1;html=1;rounded=0;exitX=0;exitY=0.5;exitDx=0;exitDy=0;entryX=1;entryY=0.5;entryDx=0;entryDy=0;" edge="1" parent="1" source="Vs_hEIHAzvYyTjZS9S4T-4" target="0nGfKhoNtDC8-pFZN1kh-20">
          <mxGeometry width="160" relative="1" as="geometry">
            <mxPoint x="550" y="400" as="sourcePoint" />
            <mxPoint x="710" y="400" as="targetPoint" />
          </mxGeometry>
        </mxCell>
        <mxCell id="Vs_hEIHAzvYyTjZS9S4T-8" value="commerciale" style="shape=umlActor;verticalLabelPosition=bottom;verticalAlign=top;html=1;" vertex="1" parent="1">
          <mxGeometry x="2545" y="173" width="30" height="60" as="geometry" />
        </mxCell>
        <mxCell id="Vs_hEIHAzvYyTjZS9S4T-10" value="" style="html=1;whiteSpace=wrap;" vertex="1" parent="1">
          <mxGeometry x="2211" y="20" width="250" height="530" as="geometry" />
        </mxCell>
        <mxCell id="Vs_hEIHAzvYyTjZS9S4T-11" value="accueillir client" style="ellipse;whiteSpace=wrap;html=1;" vertex="1" parent="1">
          <mxGeometry x="2301" y="60" width="140" height="70" as="geometry" />
        </mxCell>
        <mxCell id="Vs_hEIHAzvYyTjZS9S4T-12" value="proposer véhicules" style="ellipse;whiteSpace=wrap;html=1;" vertex="1" parent="1">
          <mxGeometry x="2215" y="130" width="140" height="70" as="geometry" />
        </mxCell>
        <mxCell id="Vs_hEIHAzvYyTjZS9S4T-13" value="commande nouveau&lt;div&gt;véhicule&lt;/div&gt;" style="ellipse;whiteSpace=wrap;html=1;" vertex="1" parent="1">
          <mxGeometry x="2301" y="380" width="140" height="70" as="geometry" />
        </mxCell>
        <mxCell id="Vs_hEIHAzvYyTjZS9S4T-14" value="Facturation nouveau véhicule" style="ellipse;whiteSpace=wrap;html=1;" vertex="1" parent="1">
          <mxGeometry x="2215" y="470" width="140" height="70" as="geometry" />
        </mxCell>
        <mxCell id="Vs_hEIHAzvYyTjZS9S4T-15" value="réceptionne commandes&lt;div&gt;nouveaux véhicules&lt;/div&gt;" style="ellipse;whiteSpace=wrap;html=1;" vertex="1" parent="1">
          <mxGeometry x="1890" y="405" width="150" height="70" as="geometry" />
        </mxCell>
        <mxCell id="Vs_hEIHAzvYyTjZS9S4T-16" value="" style="endArrow=open;endFill=1;endSize=12;html=1;rounded=0;exitX=0.5;exitY=0.5;exitDx=0;exitDy=0;exitPerimeter=0;entryX=0;entryY=0.5;entryDx=0;entryDy=0;" edge="1" parent="1" source="0nGfKhoNtDC8-pFZN1kh-4" target="Vs_hEIHAzvYyTjZS9S4T-15">
          <mxGeometry width="160" relative="1" as="geometry">
            <mxPoint x="2160" y="402" as="sourcePoint" />
            <mxPoint x="2320" y="402" as="targetPoint" />
          </mxGeometry>
        </mxCell>
        <mxCell id="Vs_hEIHAzvYyTjZS9S4T-20" value="enregistré&amp;nbsp;&lt;div&gt;nouveau client&lt;/div&gt;" style="ellipse;whiteSpace=wrap;html=1;" vertex="1" parent="1">
          <mxGeometry x="2225" y="310" width="140" height="70" as="geometry" />
        </mxCell>
        <mxCell id="Vs_hEIHAzvYyTjZS9S4T-21" value="" style="endArrow=open;endFill=1;endSize=12;html=1;rounded=0;exitX=0.5;exitY=0;exitDx=0;exitDy=0;exitPerimeter=0;entryX=1;entryY=0.5;entryDx=0;entryDy=0;" edge="1" parent="1" source="Vs_hEIHAzvYyTjZS9S4T-8" target="Vs_hEIHAzvYyTjZS9S4T-11">
          <mxGeometry width="160" relative="1" as="geometry">
            <mxPoint x="2205" y="170" as="sourcePoint" />
            <mxPoint x="2365" y="170" as="targetPoint" />
          </mxGeometry>
        </mxCell>
        <mxCell id="Vs_hEIHAzvYyTjZS9S4T-22" value="" style="endArrow=open;endFill=1;endSize=12;html=1;rounded=0;exitX=0;exitY=0.3333333333333333;exitDx=0;exitDy=0;exitPerimeter=0;entryX=1;entryY=0.5;entryDx=0;entryDy=0;" edge="1" parent="1" source="Vs_hEIHAzvYyTjZS9S4T-8" target="Vs_hEIHAzvYyTjZS9S4T-12">
          <mxGeometry width="160" relative="1" as="geometry">
            <mxPoint x="2205" y="170" as="sourcePoint" />
            <mxPoint x="2365" y="170" as="targetPoint" />
          </mxGeometry>
        </mxCell>
        <mxCell id="Vs_hEIHAzvYyTjZS9S4T-23" value="sélection modèle" style="ellipse;whiteSpace=wrap;html=1;" vertex="1" parent="1">
          <mxGeometry x="2235" y="225" width="140" height="70" as="geometry" />
        </mxCell>
        <mxCell id="Vs_hEIHAzvYyTjZS9S4T-25" value="client" style="shape=umlActor;verticalLabelPosition=bottom;verticalAlign=top;html=1;" vertex="1" parent="1">
          <mxGeometry x="2140" y="230" width="30" height="60" as="geometry" />
        </mxCell>
        <mxCell id="Vs_hEIHAzvYyTjZS9S4T-26" value="" style="endArrow=open;endFill=1;endSize=12;html=1;rounded=0;exitX=0.5;exitY=0.5;exitDx=0;exitDy=0;exitPerimeter=0;entryX=0;entryY=0.5;entryDx=0;entryDy=0;" edge="1" parent="1" source="Vs_hEIHAzvYyTjZS9S4T-25" target="Vs_hEIHAzvYyTjZS9S4T-23">
          <mxGeometry width="160" relative="1" as="geometry">
            <mxPoint x="2205" y="280" as="sourcePoint" />
            <mxPoint x="2365" y="280" as="targetPoint" />
          </mxGeometry>
        </mxCell>
        <mxCell id="Vs_hEIHAzvYyTjZS9S4T-27" value="" style="endArrow=open;endFill=1;endSize=12;html=1;rounded=0;exitX=0.5;exitY=0.5;exitDx=0;exitDy=0;exitPerimeter=0;entryX=1;entryY=0.5;entryDx=0;entryDy=0;" edge="1" parent="1" source="Vs_hEIHAzvYyTjZS9S4T-8" target="Vs_hEIHAzvYyTjZS9S4T-20">
          <mxGeometry width="160" relative="1" as="geometry">
            <mxPoint x="2205" y="280" as="sourcePoint" />
            <mxPoint x="2365" y="280" as="targetPoint" />
          </mxGeometry>
        </mxCell>
        <mxCell id="Vs_hEIHAzvYyTjZS9S4T-28" value="" style="endArrow=open;endFill=1;endSize=12;html=1;rounded=0;exitX=0.5;exitY=0.5;exitDx=0;exitDy=0;exitPerimeter=0;entryX=1;entryY=0.5;entryDx=0;entryDy=0;" edge="1" parent="1" source="Vs_hEIHAzvYyTjZS9S4T-8" target="Vs_hEIHAzvYyTjZS9S4T-13">
          <mxGeometry width="160" relative="1" as="geometry">
            <mxPoint x="2205" y="280" as="sourcePoint" />
            <mxPoint x="2365" y="280" as="targetPoint" />
          </mxGeometry>
        </mxCell>
        <mxCell id="Vs_hEIHAzvYyTjZS9S4T-29" value="include" style="endArrow=open;endSize=12;dashed=1;html=1;rounded=0;exitX=0;exitY=0.5;exitDx=0;exitDy=0;entryX=0.5;entryY=0;entryDx=0;entryDy=0;" edge="1" parent="1" source="Vs_hEIHAzvYyTjZS9S4T-13" target="Vs_hEIHAzvYyTjZS9S4T-14">
          <mxGeometry width="160" relative="1" as="geometry">
            <mxPoint x="2205" y="280" as="sourcePoint" />
            <mxPoint x="2365" y="280" as="targetPoint" />
          </mxGeometry>
        </mxCell>
        <mxCell id="Vs_hEIHAzvYyTjZS9S4T-30" value="&lt;font style=&quot;font-size: 19px;&quot;&gt;Vente commerciale&lt;/font&gt;" style="text;align=left;fontStyle=1;verticalAlign=middle;spacingLeft=3;spacingRight=3;strokeColor=none;rotatable=0;points=[[0,0.5],[1,0.5]];portConstraint=eastwest;html=1;" vertex="1" parent="1">
          <mxGeometry x="2211" y="20" width="80" height="26" as="geometry" />
        </mxCell>
        <mxCell id="Vs_hEIHAzvYyTjZS9S4T-31" value="client" style="shape=umlActor;verticalLabelPosition=bottom;verticalAlign=top;html=1;" vertex="1" parent="1">
          <mxGeometry x="880" y="110" width="30" height="60" as="geometry" />
        </mxCell>
        <mxCell id="Vs_hEIHAzvYyTjZS9S4T-34" value="rapport véhicule endommager" style="ellipse;whiteSpace=wrap;html=1;" vertex="1" parent="1">
          <mxGeometry x="611" y="60" width="140" height="70" as="geometry" />
        </mxCell>
        <mxCell id="Vs_hEIHAzvYyTjZS9S4T-36" value="" style="endArrow=open;endFill=1;endSize=12;html=1;rounded=0;exitX=0.5;exitY=0.5;exitDx=0;exitDy=0;exitPerimeter=0;entryX=1;entryY=0.5;entryDx=0;entryDy=0;" edge="1" parent="1" source="Vs_hEIHAzvYyTjZS9S4T-31" target="Vs_hEIHAzvYyTjZS9S4T-34">
          <mxGeometry width="160" relative="1" as="geometry">
            <mxPoint x="730" y="400" as="sourcePoint" />
            <mxPoint x="890" y="400" as="targetPoint" />
          </mxGeometry>
        </mxCell>
        <mxCell id="Vs_hEIHAzvYyTjZS9S4T-37" value="include" style="endArrow=open;endSize=12;dashed=1;html=1;rounded=0;exitX=0;exitY=0.5;exitDx=0;exitDy=0;" edge="1" parent="1" source="Vs_hEIHAzvYyTjZS9S4T-34" target="0nGfKhoNtDC8-pFZN1kh-21">
          <mxGeometry width="160" relative="1" as="geometry">
            <mxPoint x="730" y="400" as="sourcePoint" />
            <mxPoint x="890" y="400" as="targetPoint" />
          </mxGeometry>
        </mxCell>
        <mxCell id="Vs_hEIHAzvYyTjZS9S4T-52" value="réception nouveaux véhicules" style="ellipse;whiteSpace=wrap;html=1;" vertex="1" parent="1">
          <mxGeometry x="1410" y="395" width="140" height="70" as="geometry" />
        </mxCell>
        <mxCell id="Vs_hEIHAzvYyTjZS9S4T-53" value="" style="endArrow=open;endFill=1;endSize=12;html=1;rounded=0;exitX=0;exitY=1;exitDx=0;exitDy=0;exitPerimeter=0;" edge="1" parent="1" source="0nGfKhoNtDC8-pFZN1kh-13" target="Vs_hEIHAzvYyTjZS9S4T-52">
          <mxGeometry width="160" relative="1" as="geometry">
            <mxPoint x="1630" y="210" as="sourcePoint" />
            <mxPoint x="1770" y="210" as="targetPoint" />
          </mxGeometry>
        </mxCell>
        <mxCell id="Vs_hEIHAzvYyTjZS9S4T-56" value="trouver panne" style="ellipse;whiteSpace=wrap;html=1;" vertex="1" parent="1">
          <mxGeometry x="880" y="454" width="140" height="70" as="geometry" />
        </mxCell>
        <mxCell id="Vs_hEIHAzvYyTjZS9S4T-57" value="" style="endArrow=open;endFill=1;endSize=12;html=1;rounded=0;exitX=0.5;exitY=0.5;exitDx=0;exitDy=0;exitPerimeter=0;entryX=1;entryY=0.5;entryDx=0;entryDy=0;" edge="1" parent="1" source="0nGfKhoNtDC8-pFZN1kh-25" target="Vs_hEIHAzvYyTjZS9S4T-56">
          <mxGeometry width="160" relative="1" as="geometry">
            <mxPoint x="1350" y="654" as="sourcePoint" />
            <mxPoint x="1510" y="654" as="targetPoint" />
          </mxGeometry>
        </mxCell>
        <mxCell id="Vs_hEIHAzvYyTjZS9S4T-58" value="include" style="endArrow=open;endSize=12;dashed=1;html=1;rounded=0;exitX=0.5;exitY=0;exitDx=0;exitDy=0;entryX=0.5;entryY=1;entryDx=0;entryDy=0;" edge="1" parent="1" source="0nGfKhoNtDC8-pFZN1kh-28" target="Vs_hEIHAzvYyTjZS9S4T-56">
          <mxGeometry width="160" relative="1" as="geometry">
            <mxPoint x="1350" y="654" as="sourcePoint" />
            <mxPoint x="1510" y="654" as="targetPoint" />
          </mxGeometry>
        </mxCell>
      </root>
    </mxGraphModel>
  </diagram>
  <diagram id="a1LsmDEapcAJTd2uNxOQ" name="Page-2">
    <mxGraphModel dx="265" dy="756" grid="1" gridSize="10" guides="1" tooltips="1" connect="1" arrows="1" fold="1" page="1" pageScale="1" pageWidth="1169" pageHeight="827" math="0" shadow="0">
      <root>
        <mxCell id="0" />
        <mxCell id="1" parent="0" />
        <mxCell id="q30_vvDEX-V0YMccN1gz-1" value="" style="html=1;whiteSpace=wrap;" vertex="1" parent="1">
          <mxGeometry x="1330" y="100" width="710" height="620" as="geometry" />
        </mxCell>
        <mxCell id="q30_vvDEX-V0YMccN1gz-2" value="enregistrement&amp;nbsp;&lt;div&gt;véhicules&amp;nbsp;&lt;/div&gt;" style="ellipse;whiteSpace=wrap;html=1;" vertex="1" parent="1">
          <mxGeometry x="1700" y="220" width="140" height="70" as="geometry" />
        </mxCell>
        <mxCell id="q30_vvDEX-V0YMccN1gz-3" value="chef d&#39;atelier" style="shape=umlActor;verticalLabelPosition=bottom;verticalAlign=top;html=1;outlineConnect=0;" vertex="1" parent="1">
          <mxGeometry x="1690" y="116" width="30" height="60" as="geometry" />
        </mxCell>
        <mxCell id="q30_vvDEX-V0YMccN1gz-4" value="comptable" style="shape=umlActor;verticalLabelPosition=bottom;verticalAlign=top;html=1;outlineConnect=0;" vertex="1" parent="1">
          <mxGeometry x="1990" y="300" width="30" height="60" as="geometry" />
        </mxCell>
        <mxCell id="q30_vvDEX-V0YMccN1gz-5" value="Facturation" style="ellipse;whiteSpace=wrap;html=1;" vertex="1" parent="1">
          <mxGeometry x="1800" y="340" width="140" height="70" as="geometry" />
        </mxCell>
        <mxCell id="q30_vvDEX-V0YMccN1gz-6" value="magasignier" style="shape=umlActor;verticalLabelPosition=bottom;verticalAlign=top;html=1;outlineConnect=0;" vertex="1" parent="1">
          <mxGeometry x="1620" y="604" width="30" height="60" as="geometry" />
        </mxCell>
        <mxCell id="q30_vvDEX-V0YMccN1gz-7" value="mécanicien" style="shape=umlActor;verticalLabelPosition=bottom;verticalAlign=top;html=1;" vertex="1" parent="1">
          <mxGeometry x="1370" y="300" width="30" height="60" as="geometry" />
        </mxCell>
        <mxCell id="q30_vvDEX-V0YMccN1gz-8" value="réparé véhicule" style="ellipse;whiteSpace=wrap;html=1;" vertex="1" parent="1">
          <mxGeometry x="1495" y="305" width="140" height="70" as="geometry" />
        </mxCell>
        <mxCell id="q30_vvDEX-V0YMccN1gz-9" value="fournir pièces" style="ellipse;whiteSpace=wrap;html=1;" vertex="1" parent="1">
          <mxGeometry x="1604" y="450" width="140" height="70" as="geometry" />
        </mxCell>
        <mxCell id="q30_vvDEX-V0YMccN1gz-10" value="designer mécanicien" style="ellipse;whiteSpace=wrap;html=1;" vertex="1" parent="1">
          <mxGeometry x="1370" y="115" width="140" height="70" as="geometry" />
        </mxCell>
        <mxCell id="q30_vvDEX-V0YMccN1gz-11" value="avoir besoin&lt;div&gt;de pièces&lt;/div&gt;" style="ellipse;whiteSpace=wrap;html=1;" vertex="1" parent="1">
          <mxGeometry x="1420" y="430" width="140" height="70" as="geometry" />
        </mxCell>
        <mxCell id="q30_vvDEX-V0YMccN1gz-12" value="extend" style="endArrow=open;endSize=12;dashed=1;html=1;rounded=0;entryX=0.036;entryY=0.786;entryDx=0;entryDy=0;entryPerimeter=0;" edge="1" parent="1" source="q30_vvDEX-V0YMccN1gz-11" target="q30_vvDEX-V0YMccN1gz-8">
          <mxGeometry width="160" relative="1" as="geometry">
            <mxPoint x="1680" y="375" as="sourcePoint" />
            <mxPoint x="1840" y="375" as="targetPoint" />
          </mxGeometry>
        </mxCell>
        <mxCell id="q30_vvDEX-V0YMccN1gz-13" value="include" style="endArrow=open;endSize=12;dashed=1;html=1;rounded=0;exitX=0.5;exitY=0;exitDx=0;exitDy=0;entryX=1;entryY=0.5;entryDx=0;entryDy=0;" edge="1" parent="1" source="q30_vvDEX-V0YMccN1gz-9" target="q30_vvDEX-V0YMccN1gz-8">
          <mxGeometry width="160" relative="1" as="geometry">
            <mxPoint x="1680" y="375" as="sourcePoint" />
            <mxPoint x="1840" y="375" as="targetPoint" />
          </mxGeometry>
        </mxCell>
        <mxCell id="q30_vvDEX-V0YMccN1gz-14" value="&amp;nbsp;liste les réparations&lt;div&gt;et des pièces&lt;/div&gt;" style="ellipse;whiteSpace=wrap;html=1;" vertex="1" parent="1">
          <mxGeometry x="1830" y="155" width="140" height="70" as="geometry" />
        </mxCell>
        <mxCell id="q30_vvDEX-V0YMccN1gz-15" value="&lt;font style=&quot;font-size: 19px;&quot;&gt;Vue générale système&lt;/font&gt;" style="text;align=left;fontStyle=1;verticalAlign=middle;spacingLeft=3;spacingRight=3;strokeColor=none;rotatable=0;points=[[0,0.5],[1,0.5]];portConstraint=eastwest;html=1;" vertex="1" parent="1">
          <mxGeometry x="1330" y="696" width="80" height="26" as="geometry" />
        </mxCell>
        <mxCell id="q30_vvDEX-V0YMccN1gz-16" value="" style="endArrow=open;endFill=1;endSize=12;html=1;rounded=0;entryX=1;entryY=0.5;entryDx=0;entryDy=0;" edge="1" parent="1" source="q30_vvDEX-V0YMccN1gz-3" target="q30_vvDEX-V0YMccN1gz-10">
          <mxGeometry width="160" relative="1" as="geometry">
            <mxPoint x="1590" y="290" as="sourcePoint" />
            <mxPoint x="1750" y="290" as="targetPoint" />
          </mxGeometry>
        </mxCell>
        <mxCell id="q30_vvDEX-V0YMccN1gz-17" value="" style="endArrow=open;endFill=1;endSize=12;html=1;rounded=0;exitX=0;exitY=1;exitDx=0;exitDy=0;entryX=0.5;entryY=0;entryDx=0;entryDy=0;entryPerimeter=0;" edge="1" parent="1" source="q30_vvDEX-V0YMccN1gz-10" target="q30_vvDEX-V0YMccN1gz-7">
          <mxGeometry width="160" relative="1" as="geometry">
            <mxPoint x="1590" y="290" as="sourcePoint" />
            <mxPoint x="1390" y="300" as="targetPoint" />
          </mxGeometry>
        </mxCell>
        <mxCell id="q30_vvDEX-V0YMccN1gz-18" value="" style="endArrow=open;endFill=1;endSize=12;html=1;rounded=0;" edge="1" parent="1" target="q30_vvDEX-V0YMccN1gz-8">
          <mxGeometry width="160" relative="1" as="geometry">
            <mxPoint x="1390" y="340" as="sourcePoint" />
            <mxPoint x="1750" y="290" as="targetPoint" />
          </mxGeometry>
        </mxCell>
        <mxCell id="q30_vvDEX-V0YMccN1gz-19" value="demande pièces" style="ellipse;whiteSpace=wrap;html=1;" vertex="1" parent="1">
          <mxGeometry x="1420" y="594" width="140" height="70" as="geometry" />
        </mxCell>
        <mxCell id="q30_vvDEX-V0YMccN1gz-20" value="" style="endArrow=open;endFill=1;endSize=12;html=1;rounded=0;exitX=1;exitY=0.5;exitDx=0;exitDy=0;" edge="1" parent="1" source="q30_vvDEX-V0YMccN1gz-19" target="q30_vvDEX-V0YMccN1gz-6">
          <mxGeometry width="160" relative="1" as="geometry">
            <mxPoint x="1590" y="290" as="sourcePoint" />
            <mxPoint x="1750" y="290" as="targetPoint" />
          </mxGeometry>
        </mxCell>
        <mxCell id="q30_vvDEX-V0YMccN1gz-21" value="" style="endArrow=open;endFill=1;endSize=12;html=1;rounded=0;entryX=0.5;entryY=1;entryDx=0;entryDy=0;exitX=1;exitY=0.3333333333333333;exitDx=0;exitDy=0;exitPerimeter=0;" edge="1" parent="1" source="q30_vvDEX-V0YMccN1gz-6" target="q30_vvDEX-V0YMccN1gz-9">
          <mxGeometry width="160" relative="1" as="geometry">
            <mxPoint x="1970" y="550" as="sourcePoint" />
            <mxPoint x="1750" y="290" as="targetPoint" />
          </mxGeometry>
        </mxCell>
        <mxCell id="q30_vvDEX-V0YMccN1gz-22" value="" style="endArrow=open;endFill=1;endSize=12;html=1;rounded=0;entryX=0;entryY=0.5;entryDx=0;entryDy=0;" edge="1" parent="1" source="q30_vvDEX-V0YMccN1gz-3" target="q30_vvDEX-V0YMccN1gz-14">
          <mxGeometry width="160" relative="1" as="geometry">
            <mxPoint x="1590" y="290" as="sourcePoint" />
            <mxPoint x="1750" y="290" as="targetPoint" />
          </mxGeometry>
        </mxCell>
        <mxCell id="q30_vvDEX-V0YMccN1gz-23" value="" style="endArrow=open;endFill=1;endSize=12;html=1;rounded=0;exitX=0.5;exitY=0.5;exitDx=0;exitDy=0;exitPerimeter=0;" edge="1" parent="1" source="q30_vvDEX-V0YMccN1gz-3" target="q30_vvDEX-V0YMccN1gz-2">
          <mxGeometry width="160" relative="1" as="geometry">
            <mxPoint x="1730" y="161" as="sourcePoint" />
            <mxPoint x="1840" y="200" as="targetPoint" />
          </mxGeometry>
        </mxCell>
        <mxCell id="q30_vvDEX-V0YMccN1gz-24" value="" style="endArrow=open;endFill=1;endSize=12;html=1;rounded=0;exitX=0.5;exitY=1;exitDx=0;exitDy=0;" edge="1" parent="1" source="q30_vvDEX-V0YMccN1gz-14" target="q30_vvDEX-V0YMccN1gz-4">
          <mxGeometry width="160" relative="1" as="geometry">
            <mxPoint x="1590" y="290" as="sourcePoint" />
            <mxPoint x="1750" y="290" as="targetPoint" />
          </mxGeometry>
        </mxCell>
        <mxCell id="q30_vvDEX-V0YMccN1gz-25" value="" style="endArrow=open;endFill=1;endSize=12;html=1;rounded=0;entryX=0.5;entryY=0;entryDx=0;entryDy=0;" edge="1" parent="1" source="q30_vvDEX-V0YMccN1gz-4" target="q30_vvDEX-V0YMccN1gz-5">
          <mxGeometry width="160" relative="1" as="geometry">
            <mxPoint x="1900" y="230" as="sourcePoint" />
            <mxPoint x="1750" y="290" as="targetPoint" />
          </mxGeometry>
        </mxCell>
        <mxCell id="q30_vvDEX-V0YMccN1gz-26" value="vérifie réparations" style="ellipse;whiteSpace=wrap;html=1;" vertex="1" parent="1">
          <mxGeometry x="1495" y="195" width="140" height="70" as="geometry" />
        </mxCell>
        <mxCell id="q30_vvDEX-V0YMccN1gz-27" value="" style="endArrow=open;endFill=1;endSize=12;html=1;rounded=0;" edge="1" parent="1" source="q30_vvDEX-V0YMccN1gz-3" target="q30_vvDEX-V0YMccN1gz-26">
          <mxGeometry width="160" relative="1" as="geometry">
            <mxPoint x="1590" y="290" as="sourcePoint" />
            <mxPoint x="1750" y="290" as="targetPoint" />
          </mxGeometry>
        </mxCell>
        <mxCell id="q30_vvDEX-V0YMccN1gz-28" value="" style="endArrow=block;dashed=1;endFill=0;endSize=12;html=1;rounded=0;exitX=0.5;exitY=1;exitDx=0;exitDy=0;" edge="1" parent="1" source="q30_vvDEX-V0YMccN1gz-11" target="q30_vvDEX-V0YMccN1gz-19">
          <mxGeometry width="160" relative="1" as="geometry">
            <mxPoint x="1560" y="410" as="sourcePoint" />
            <mxPoint x="1720" y="410" as="targetPoint" />
          </mxGeometry>
        </mxCell>
        <mxCell id="q30_vvDEX-V0YMccN1gz-29" value="include" style="edgeLabel;html=1;align=center;verticalAlign=middle;resizable=0;points=[];" vertex="1" connectable="0" parent="q30_vvDEX-V0YMccN1gz-28">
          <mxGeometry x="0.0036" y="-1" relative="1" as="geometry">
            <mxPoint as="offset" />
          </mxGeometry>
        </mxCell>
        <mxCell id="q30_vvDEX-V0YMccN1gz-30" value="commerciale" style="shape=umlActor;verticalLabelPosition=bottom;verticalAlign=top;html=1;" vertex="1" parent="1">
          <mxGeometry x="1960" y="615" width="30" height="60" as="geometry" />
        </mxCell>
        <mxCell id="q30_vvDEX-V0YMccN1gz-31" value="vendre nouveaux véhicules" style="ellipse;whiteSpace=wrap;html=1;" vertex="1" parent="1">
          <mxGeometry x="1790" y="485" width="140" height="70" as="geometry" />
        </mxCell>
        <mxCell id="q30_vvDEX-V0YMccN1gz-32" value="" style="endArrow=open;endFill=1;endSize=12;html=1;rounded=0;exitX=0;exitY=0.3333333333333333;exitDx=0;exitDy=0;exitPerimeter=0;entryX=1;entryY=1;entryDx=0;entryDy=0;" edge="1" parent="1" source="q30_vvDEX-V0YMccN1gz-30" target="q30_vvDEX-V0YMccN1gz-31">
          <mxGeometry width="160" relative="1" as="geometry">
            <mxPoint x="1560" y="410" as="sourcePoint" />
            <mxPoint x="1720" y="410" as="targetPoint" />
          </mxGeometry>
        </mxCell>
        <mxCell id="q30_vvDEX-V0YMccN1gz-33" value="include" style="endArrow=open;endSize=12;dashed=1;html=1;rounded=0;exitX=0.5;exitY=0;exitDx=0;exitDy=0;entryX=0.421;entryY=0.964;entryDx=0;entryDy=0;entryPerimeter=0;" edge="1" parent="1" source="q30_vvDEX-V0YMccN1gz-31" target="q30_vvDEX-V0YMccN1gz-5">
          <mxGeometry width="160" relative="1" as="geometry">
            <mxPoint x="1560" y="410" as="sourcePoint" />
            <mxPoint x="1720" y="410" as="targetPoint" />
          </mxGeometry>
        </mxCell>
        <mxCell id="q30_vvDEX-V0YMccN1gz-34" value="réception pièces et&amp;nbsp;&lt;div&gt;véhicules neufs&lt;/div&gt;" style="ellipse;whiteSpace=wrap;html=1;" vertex="1" parent="1">
          <mxGeometry x="1710" y="624" width="140" height="70" as="geometry" />
        </mxCell>
        <mxCell id="q30_vvDEX-V0YMccN1gz-35" value="" style="endArrow=open;endFill=1;endSize=12;html=1;rounded=0;exitX=0;exitY=0.5;exitDx=0;exitDy=0;entryX=1;entryY=1;entryDx=0;entryDy=0;entryPerimeter=0;" edge="1" parent="1" source="q30_vvDEX-V0YMccN1gz-34" target="q30_vvDEX-V0YMccN1gz-6">
          <mxGeometry width="160" relative="1" as="geometry">
            <mxPoint x="1560" y="410" as="sourcePoint" />
            <mxPoint x="1720" y="410" as="targetPoint" />
          </mxGeometry>
        </mxCell>
        <mxCell id="q30_vvDEX-V0YMccN1gz-36" value="include" style="endArrow=open;endSize=12;dashed=1;html=1;rounded=0;exitX=0.5;exitY=1;exitDx=0;exitDy=0;entryX=1;entryY=0;entryDx=0;entryDy=0;" edge="1" parent="1" source="q30_vvDEX-V0YMccN1gz-31" target="q30_vvDEX-V0YMccN1gz-34">
          <mxGeometry width="160" relative="1" as="geometry">
            <mxPoint x="1560" y="410" as="sourcePoint" />
            <mxPoint x="1720" y="410" as="targetPoint" />
          </mxGeometry>
        </mxCell>
      </root>
    </mxGraphModel>
  </diagram>
</mxfile>
